<?xml version="1.0" encoding="utf-8"?>
<!-- Generator: Adobe Illustrator 24.0.2, SVG Export Plug-In . SVG Version: 6.00 Build 0)  -->
<svg version="1.1" id="Capa_1" xmlns="http://www.w3.org/2000/svg" xmlns:xlink="http://www.w3.org/1999/xlink" x="0px" y="0px"
	 viewBox="0 0 512 512" style="enable-background:new 0 0 512 512;" xml:space="preserve">
<style type="text/css">
	.st0{fill:#222629;}
	.st1{fill:#2DB34A;}
	.st2{fill:#19B24B;}
	.st3{fill:#007417;}
	.st4{fill:#067400;}
	.st5{fill:#6DBE45;}
	.st6{fill:#6CBE45;}
	.st7{fill:#75C043;}
	.st8{fill:#007F0E;}
</style>
<g>
	<g>
		<path class="st0" d="M256,0C114.8,0,0,114.8,0,256s114.8,256,256,256s256-114.8,256-256S397.2,0,256,0z M256,490.7
			C126.6,490.7,21.3,385.4,21.3,256S126.6,21.3,256,21.3S490.7,126.6,490.7,256S385.4,490.7,256,490.7z"/>
	</g>
</g>
<g>
	<g>
		<path d="M256.5-1C115.3-1,0.5,113.8,0.5,255s114.8,256,256,256s256-114.8,256-256S397.7-1,256.5-1z M256.5,489.7
			C127.1,489.7,21.8,384.4,21.8,255S127.1,20.3,256.5,20.3S491.2,125.6,491.2,255S385.9,489.7,256.5,489.7z"/>
	</g>
</g>
<path class="st1" d="M422.4,289.5c-11.3-12.1-29.2-11.2-40.2,1.4L352,325.5c-11.1,12.7-26.2,19.9-42,19.9h-26.6
	c16.1,0,29.1-15.3,28.6-33.9c-0.5-17.8-13.7-31.7-29.3-31.7H98v102.3h27.1c6.9,0,12.5,6.4,12.5,14.3s5.6,14.3,12.5,14.3h183.7
	c15.8,0,30.9-7.2,42-19.9l47.5-54.4C434.6,323.6,434.3,302.3,422.4,289.5z"/>
<path class="st2" d="M422.4,289.5c-2.4-2.5-5.1-4.6-7.9-5.9c4.5,12,2.5,26.4-6,36.2L361,374.2c-11.1,12.7-26.2,19.9-42,19.9H137.4
	c0.1,0.8,0.2,1.7,0.2,2.5c0,7.9,5.6,14.3,12.5,14.3h183.7c15.8,0,30.9-7.2,42-19.9l47.5-54.4C434.6,323.6,434.3,302.3,422.4,289.5z"
	/>
<path class="st3" d="M283.5,348.5h-74.6c-1.5,0-2.7-1.4-2.7-3.1s1.2-3.1,2.7-3.1h74.6c14.3,0,25.9-13.3,25.9-29.7
	c0-16.4-11.6-29.7-25.9-29.7h-98.4c-1.5,0-2.7-1.4-2.7-3.1s1.2-3.1,2.7-3.1h98.4c17.2,0,31.3,16.1,31.3,35.8
	C314.7,332.5,300.7,348.5,283.5,348.5z"/>
<path class="st4" d="M333.8,414H150.1c-8.4,0-15.2-7.8-15.2-17.4c0-6.2-4.4-11.3-9.8-11.3H98c-1.5,0-2.7-1.4-2.7-3.1V279.9
	c0-1.7,1.2-3.1,2.7-3.1h184.7c17.1,0,31.5,15.5,32,34.6c0.3,9.8-2.8,19.1-8.8,26.1c-1.5,1.8-3.2,3.4-4.9,4.8h9
	c15.2,0,29.4-6.7,40.1-19l30.2-34.6c12.1-13.8,31.8-14.5,44-1.5c6.3,6.7,9.8,15.8,9.9,25.6c0.1,9.8-3.1,19-9.2,25.9l-47.4,54.4
	C365.9,406.7,350.4,414,333.8,414z M100.7,379.2h24.4c8.4,0,15.2,7.8,15.2,17.4c0,6.2,4.4,11.3,9.8,11.3h183.7
	c15.2,0,29.4-6.7,40.1-19l47.5-54.4c5-5.7,7.7-13.4,7.5-21.5c-0.1-8.1-3-15.6-8.2-21.2c-10-10.8-26.5-10.2-36.5,1.3L354,327.7
	c-11.7,13.4-27.3,20.9-43.9,20.9h-26.6c-1.5,0-2.7-1.4-2.7-3.1s1.2-3.1,2.7-3.1c7.1,0,13.7-3.2,18.6-9s7.5-13.5,7.3-21.6
	c-0.5-15.8-12.4-28.7-26.6-28.7h-182L100.7,379.2L100.7,379.2z"/>
<path class="st5" d="M338.6,170c0,46.7-33,84.6-73.8,84.6S191,216.7,191,170s33-84.6,73.8-84.6S338.6,123.3,338.6,170z"/>
<path class="st6" d="M264.8,85.4c-2.5,0-4.9,0.2-7.4,0.4c37.3,4.2,66.4,40.3,66.4,84.2s-29.1,79.9-66.4,84.2
	c2.4,0.3,4.9,0.4,7.4,0.4c40.8,0,73.8-37.8,73.8-84.6S305.5,85.4,264.8,85.4z"/>
<path class="st7" d="M264.8,85.4c2.5,0,4.9,0.2,7.4,0.4c-37.3,4.2-66.4,40.3-66.4,84.2s29.1,79.9,66.4,84.2
	c-2.4,0.3-4.9,0.4-7.4,0.4c-40.8,0-73.8-37.8-73.8-84.6S224,85.4,264.8,85.4z"/>
<g>
	<path class="st8" d="M264.8,257.6c-42.2,0-76.5-39.3-76.5-87.6s34.3-87.6,76.5-87.6s76.5,39.3,76.5,87.6S307,257.6,264.8,257.6z
		 M264.8,88.5c-39.2,0-71.1,36.5-71.1,81.5s31.9,81.5,71.1,81.5s71.1-36.5,71.1-81.5S304,88.5,264.8,88.5z"/>
	<path class="st8" d="M213.2,133.6c-0.5,0-1-0.2-1.5-0.5c-1.2-0.9-1.5-2.9-0.7-4.2c3.4-5.9,7.6-11.2,12.3-15.7
		c1.1-1.1,2.8-0.9,3.8,0.4c0.9,1.3,0.8,3.2-0.3,4.3c-4.4,4.2-8.2,9-11.3,14.4C215,133.1,214.1,133.6,213.2,133.6z"/>
	<path class="st8" d="M265.7,125.7c2.2,0,3.8,1.9,3.8,4.4v2.2c5.3,0.7,9.7,2.6,13.8,5.6c1.4,0.9,2.7,2.5,2.7,4.9
		c0,3.2-2.2,5.6-5,5.6c-0.9,0-1.8-0.3-2.7-0.9c-3.1-2.2-6.1-3.7-9.2-4.5v19.5c13.5,3.9,19.3,10.1,19.3,21.1c0,11.3-7.7,18.7-19,19.9
		v6.1c0,2.5-1.7,4.4-3.8,4.4s-3.9-1.9-3.9-4.4v-6.3c-6.7-0.8-12.9-3.6-18.3-8c-1.5-1.2-2.4-2.8-2.4-4.9c0-3.2,2.2-5.6,4.9-5.6
		c1.1,0,2.2,0.4,3,1.2c4.2,3.5,8.3,5.8,13.2,6.9v-20.2c-13-3.9-19.1-9.5-19.1-21.1c0-11,7.6-18.5,18.7-19.5V130
		C261.8,127.7,263.5,125.7,265.7,125.7z M262.1,160.6v-18.1c-5.7,0.6-8.6,4.1-8.6,8.6C253.5,155.4,255.2,158,262.1,160.6z
		 M269.2,174.8v18.6c5.7-0.7,8.8-4,8.8-8.9C278,180,276,177.2,269.2,174.8z"/>
</g>
<path d="M341.4,254.6l-37.9-42.1l16.4-19.5l21,23.3l36.5-42.6l16.8,19L341.4,254.6z"/>
<path d="M341.4,257.6c-0.7,0-1.3-0.3-1.9-0.8l-37.9-42c-1.1-1.2-1.1-3.2-0.1-4.3L318,191c0.5-0.6,1.1-0.9,1.9-0.9
	c0.7,0,1.4,0.3,1.9,0.8l19.1,21.2l34.6-40.4c1-1.2,2.8-1.2,3.8,0l16.8,19c0.5,0.5,0.8,1.4,0.8,2.2s-0.3,1.6-0.7,2.2l-52.9,61.7
	C342.7,257.3,342.1,257.6,341.4,257.6z M307.3,212.5l34,37.8l49.2-57.4l-13-14.7l-34.6,40.4c-1,1.2-2.7,1.2-3.8,0.1L320,197.5
	L307.3,212.5z"/>
</svg>
