<?xml version="1.0" encoding="utf-8"?>
<!-- Generator: Adobe Illustrator 24.0.2, SVG Export Plug-In . SVG Version: 6.00 Build 0)  -->
<svg version="1.1" id="Capa_1" xmlns="http://www.w3.org/2000/svg" xmlns:xlink="http://www.w3.org/1999/xlink" x="0px" y="0px"
	 viewBox="0 0 512 512" style="enable-background:new 0 0 512 512;" xml:space="preserve">
<style type="text/css">
	.st0{fill:#222629;}
	.st1{fill:#007F0A;}
	.st2{fill:#00BF10;}
</style>
<g>
	<g>
		<path class="st0" d="M256,0C114.8,0,0,114.8,0,256s114.8,256,256,256s256-114.8,256-256S397.2,0,256,0z M256,490.7
			C126.6,490.7,21.3,385.4,21.3,256S126.6,21.3,256,21.3S490.7,126.6,490.7,256S385.4,490.7,256,490.7z"/>
	</g>
</g>
<g>
	<g>
		<path class="st1" d="M348.5,391.7L348.5,391.7l-0.1-48.6c0-16.4-11.1-36.9-25-46.7L270,259.2v-6.3l53.4-37.3
			c13.9-9.7,25-30.2,25-46.7v-48.6h0.1c9.3,0,16.7-7.2,16.7-16v-2.7c0-8.8-7.5-16-16.7-16h-185c-9.3,0-16.8,7.2-16.8,16v2.7
			c0,8.8,7.5,16,16.8,16l0.1,48.6c0,16.4,10.9,36.9,24.8,46.6l53.5,37.3v6.3l-53.6,37.3c-13.9,9.7-24.9,30.2-24.9,46.6v48.6h0
			c-9.3,0-16.8,7.2-16.8,16v2.7c0,8.8,7.6,16,16.8,16h185c9.3,0,16.7-7.2,16.7-16v-2.7C365.3,398.8,357.8,391.7,348.5,391.7z
			 M337.2,391.7h-14V350c0-12.1-8-27.3-18.3-34.5l-45.5-31.8c-2-1.4-4.7-1.4-6.6,0l-45.7,31.9c-10.3,7.2-18.4,22.3-18.4,34.4v41.7
			h-14v-48.6c0-13,9.3-30.4,20.3-38.1l55.8-38.9c1.4-1,2.3-2.6,2.3-4.3v-11.7c0-1.7-0.8-3.3-2.3-4.3l-55.9-38.9
			c-11-7.7-20.3-25.1-20.3-38.1v-48.6h162.5v48.6c0,13-9.5,30.4-20.5,38.1l-55.6,38.9c-1.4,1-2.4,2.6-2.4,4.3v11.7
			c0,1.7,0.8,3.3,2.3,4.3l55.7,38.9c11,7.7,20.4,25.1,20.4,38.1L337.2,391.7L337.2,391.7z"/>
	</g>
</g>
<g>
	<g>
		<path class="st2" d="M307,199.3c-0.8-2.2-2.9-3.7-5.3-3.7l-91.2,0c-2.4,0-4.6,1.5-5.3,3.7c-0.8,2.2,0.1,4.6,2,5.9l45.7,31.9
			c1,0.7,2.2,1,3.3,1c1.2,0,2.3-0.3,3.3-1l45.5-31.8C306.9,203.9,307.7,201.5,307,199.3z"/>
	</g>
</g>
</svg>
