<?xml version="1.0" encoding="utf-8"?>
<!-- Generator: Adobe Illustrator 24.0.2, SVG Export Plug-In . SVG Version: 6.00 Build 0)  -->
<svg version="1.1" id="Capa_1" xmlns="http://www.w3.org/2000/svg" xmlns:xlink="http://www.w3.org/1999/xlink" x="0px" y="0px"
	 viewBox="0 0 512 512" style="enable-background:new 0 0 512 512;" xml:space="preserve">
<style type="text/css">
	.st0{fill:#222629;}
	.st1{fill:#39B54A;}
	.st2{fill:#009245;}
</style>
<g>
	<g>
		<path class="st0" d="M256,0C114.8,0,0,114.8,0,256s114.8,256,256,256s256-114.8,256-256S397.2,0,256,0z M256,490.7
			C126.6,490.7,21.3,385.4,21.3,256S126.6,21.3,256,21.3S490.7,126.6,490.7,256S385.4,490.7,256,490.7z"/>
	</g>
</g>
<g>
	<g>
		<path d="M256.5-1C115.3-1,0.5,113.8,0.5,255s114.8,256,256,256s256-114.8,256-256S397.7-1,256.5-1z M256.5,489.7
			C127.1,489.7,21.8,384.4,21.8,255S127.1,20.3,256.5,20.3S491.2,125.6,491.2,255S385.9,489.7,256.5,489.7z"/>
	</g>
</g>
<g>
	<g>
		<path class="st1" d="M163.8,163.1v75.3c0,40.2,9.4,72.3,28.7,98.1c14.5,19.3,34.9,36.2,63.9,53c29.1-16.7,49.5-33.6,63.9-53
			c19.3-25.8,28.7-57.8,28.7-98.1v-75.3H163.8z M277.7,265.7v54.2h-42.6v-54.2c-10.4-6.4-17.3-17.4-17.3-29.8
			c0-19.8,17.3-35.8,38.6-35.8s38.6,16,38.6,35.8C295,248.3,288.2,259.3,277.7,265.7z"/>
	</g>
</g>
<g>
	<g>
		<path class="st2" d="M111.6,114.7v123.7c0,50.4,12.4,91.6,38,125.7c22.3,29.7,54.6,54.7,101.8,78.7l5,2.5l5-2.5
			c47.2-23.9,79.6-48.9,101.8-78.7c25.5-34.2,38-75.3,38-125.7V114.7H111.6z M369.9,238.4c0,44.3-10.6,80-32.4,109.1
			c-17.1,22.9-41.1,42.4-75.7,61.5l-5.4,3l-5.4-3c-34.6-19.2-58.6-38.7-75.7-61.5c-21.8-29.1-32.4-64.8-32.4-109.1v-94.7h227V238.4
			L369.9,238.4z"/>
	</g>
</g>
</svg>
