<?xml version="1.0" encoding="utf-8"?>
<!-- Generator: Adobe Illustrator 24.0.2, SVG Export Plug-In . SVG Version: 6.00 Build 0)  -->
<svg version="1.1" id="Capa_1" xmlns="http://www.w3.org/2000/svg" xmlns:xlink="http://www.w3.org/1999/xlink" x="0px" y="0px"
	 viewBox="0 0 512 512" style="enable-background:new 0 0 512 512;" xml:space="preserve">
<style type="text/css">
	.st0{fill:#222629;}
	.st1{fill:#007400;}
	.st2{fill:#00B40A;}
</style>
<g>
	<g>
		<path class="st0" d="M256,0C114.8,0,0,114.8,0,256s114.8,256,256,256s256-114.8,256-256S397.2,0,256,0z M256,490.7
			C126.6,490.7,21.3,385.4,21.3,256S126.6,21.3,256,21.3S490.7,126.6,490.7,256S385.4,490.7,256,490.7z"/>
	</g>
</g>
<g>
	<g>
		<path d="M256.5-1C115.3-1,0.5,113.8,0.5,255s114.8,256,256,256s256-114.8,256-256S397.7-1,256.5-1z M256.5,489.7
			C127.1,489.7,21.8,384.4,21.8,255S127.1,20.3,256.5,20.3S491.2,125.6,491.2,255S385.9,489.7,256.5,489.7z"/>
	</g>
</g>
<path class="st1" d="M431.6,327.8v-50.2c0-1.1-0.1-2.3-0.4-3.4l-10.7-43.8c-0.5-1.9-1.3-3.7-2.5-5.2L383,178.8
	c-3.8-5-10.3-7.4-16.3-6.4c-24.6-35.3-64.9-58.4-110.3-58.4c-45.4,0-85.6,23.1-110.2,58.4c-6-0.9-12.4,1.4-16.3,6.4l-35.1,46.4
	c-1.2,1.5-2,3.3-2.5,5.2l-10.7,43.8c-0.3,1.1-0.4,2.2-0.4,3.4v50.2c0,1.1,0.1,2.3,0.4,3.4l9.3,38.3h-9.7v34.8h90.4v-34.8h-11.3
	v-17.8c25.4,26.2,59.7,41,96,41c36.4,0,70.7-14.8,96-41v17.8h-11.3v34.8h90.4v-34.8h-9.7l9.3-38.3
	C431.5,330.1,431.6,329,431.6,327.8z M256.5,125.6c68.5,0,124.3,57.3,124.3,127.7c0,13-1.9,25.8-5.6,38l-8.8-30.1
	c-1.4-4.8-4.4-8.5-8.3-10.9c-1.6-56.2-46.5-101.4-101.5-101.4S156.6,194.1,155,250.3c-3.9,2.4-6.9,6.2-8.3,10.9l-8.8,30.1
	c-3.7-12.2-5.6-24.9-5.6-38C132.2,182.9,188,125.6,256.5,125.6z M391.6,281.2c0.1,0.5,0.1,1-0.1,1.5l-8.3,21.4
	c-0.1,0.4-0.4,0.6-0.7,0.8c3.7-9.4,6.3-19.1,7.9-29.1L391.6,281.2z M330.9,274.7l6.5,20.1c-11.8,24.3-33.3,41.8-58.3,48.5v-43.4
	c0-22.4,17.7-40.6,39.5-40.6h12.8c-1,2.3-1.5,4.8-1.5,7.5v1.9C329.9,270.7,330.3,272.7,330.9,274.7z M181.6,259.2h12.8
	c21.8,0,39.5,18.2,39.5,40.6v43.5c-24.9-6.5-46.1-23.7-58.1-48.1l-0.4,0.2l6.7-20.8c0.6-2,1-4,1-6v-1.9
	C183.1,264,182.5,261.5,181.6,259.2z M301.1,250.8c-1.2-9.6-4.6-18.6-9.9-26.5h51.1c2.4,7.4,3.8,15.2,4.3,23.2h-28
	C312.5,247.6,306.6,248.8,301.1,250.8z M175.3,212.7c14.7-30.9,45.5-52.2,81.2-52.2s66.5,21.4,81.2,52.2H175.3z M170.7,224.3h51.1
	c-5.3,7.9-8.6,16.9-9.9,26.5c-5.5-2.1-11.4-3.3-17.6-3.3h-28C166.9,239.5,168.3,231.7,170.7,224.3z M222.7,256.5
	c0.6-12.1,5.4-23.4,13.6-32.1h40.4c8.2,8.8,13,20,13.6,32.1c-13.5,9.4-22.5,25.3-22.5,43.3v45.7c-3.7,0.5-7.5,0.8-11.3,0.8
	c-3.8,0-7.6-0.3-11.3-0.8v-45.7C245.2,281.8,236.3,265.9,222.7,256.5z M122.7,275.9c1.6,10,4.2,19.7,7.9,29.1
	c-0.3-0.2-0.6-0.5-0.7-0.8l-8.3-21.4c-0.2-0.5-0.2-1-0.1-1.5L122.7,275.9z M160.5,392.7H92.7v-11.6h67.8V392.7z M102.7,369.5
	l-10.1-41.6l0.1-50.8l10.6-43.8c0.1-0.3,0.2-0.6,0.4-0.9l31.9-42.2c-6.4,12.9-10.9,26.9-13.2,41.7c-0.8,1.3-1.5,2.7-1.8,4.2
	l-10.3,42.4c-0.7,2.9-0.5,5.8,0.6,8.6l8.3,21.4c2.1,5.3,7,8.8,12.6,8.8c6,0,11.3-4,13-10l12.5-42.7c0.9-3.2,3.7-5.4,7-5.4
	c4,0,7.3,3.4,7.3,7.5v1.9c0,0.8-0.1,1.6-0.4,2.4l-22.2,68.5v30H102.7z M256.5,381.1c-36.5,0-70.7-16.3-94.4-44.7l8.7-26.8
	c18.6,30,50.6,48.3,85.7,48.3c34.8,0,67.2-18.6,85.7-48.3l8.7,26.8C327.2,364.8,293,381.1,256.5,381.1z M420.3,392.7h-67.8v-11.6
	h67.8V392.7z M363.8,369.5v-30L341.6,271c-0.2-0.8-0.4-1.6-0.4-2.4v-1.9c0-4.1,3.3-7.5,7.3-7.5c3.3,0,6.1,2.1,7,5.4l12.5,42.7
	c1.7,6,7,10,13,10c5.6,0,10.5-3.4,12.6-8.8L402,287c1.1-2.7,1.3-5.7,0.6-8.6L392.3,236c-0.4-1.5-1-2.9-1.8-4.2
	c-2.2-14.8-6.8-28.8-13.2-41.7l31.9,42.2c0.2,0.2,0.3,0.6,0.4,0.9l10.7,44.4l-0.1,50.8l-10,41.1H363.8z"/>
<path d="M273.4,253.4c0-9.6-7.6-17.4-16.9-17.4s-16.9,7.8-16.9,17.4s7.6,17.4,16.9,17.4S273.4,263,273.4,253.4z M250.9,253.4
	c0-3.2,2.5-5.8,5.6-5.8c3.1,0,5.6,2.6,5.6,5.8s-2.5,5.8-5.6,5.8C253.4,259.2,250.9,256.6,250.9,253.4z"/>
<path class="st2" d="M256.5,56c13.4,0,26,5.4,35.5,15.3l8-8.2C288.4,51,273,44.4,256.5,44.4s-31.9,6.7-43.6,18.7l8,8.2
	C230.5,61.4,243.1,56,256.5,56z"/>
<path class="st2" d="M284.2,79.5c-7.4-7.7-17.3-11.9-27.7-11.9c-10.5,0-20.3,4.2-27.7,11.9l8,8.2c5.3-5.5,12.3-8.5,19.7-8.5
	c7.4,0,14.4,3,19.7,8.5L284.2,79.5z"/>
<path class="st2" d="M244.6,95.9l8,8.2c2.1-2.2,5.7-2.2,7.8,0l8-8.2C262.1,89.3,250.9,89.3,244.6,95.9z"/>
</svg>
